<?xml version="1.0" encoding="utf-8"?>
<!-- Generator: Adobe Illustrator 16.0.0, SVG Export Plug-In . SVG Version: 6.00 Build 0)  -->
<!DOCTYPE svg PUBLIC "-//W3C//DTD SVG 1.1//EN" "http://www.w3.org/Graphics/SVG/1.1/DTD/svg11.dtd">
<svg version="1.1" xmlns="http://www.w3.org/2000/svg" xmlns:xlink="http://www.w3.org/1999/xlink" x="0px" y="0px"
	 width="1112.944px" height="211.885px" viewBox="0 0 1112.944 211.885" enable-background="new 0 0 1112.944 211.885"
	 xml:space="preserve">
<g id="Layer_1" display="none">
	<g display="inline">
		<path fill-rule="evenodd" clip-rule="evenodd" d="M480.59,504.673c-4.344,1.582-5.966-0.289-7.141-3.809
			c-2.096-6.281-2.278-6.221-9.021-6.221c-0.25,0-0.506,0.035-0.749-0.005c-6.965-1.153-11.967,0.472-13.186,8.506
			c-0.368,2.425-0.912,2.342-6.128,1.633c3.691-9.601,7.354-19.131,11.019-28.661c1.344-3.494,2.575-7.04,4.116-10.444
			c0.377-0.833,1.774-1.676,2.696-1.668c1.092,0.009,2.835,0.669,3.166,1.499C470.526,478.466,475.508,491.501,480.59,504.673z
			 M462.499,470.546c-2.539,7.067-4.728,13.158-6.996,19.471c4.884,0,9.213,0,13.994,0
			C467.238,483.731,465.069,477.698,462.499,470.546z"/>
		<path fill-rule="evenodd" clip-rule="evenodd" d="M535.521,505.043c-1.931,0-3.284,0-4.872,0c0-13.88,0-27.673,0-41.689
			c1.473,0,2.908,0,4.78,0c0,4.895,0,9.814,0,14.53c2.985-0.992,5.573-2.36,8.275-2.644c5.575-0.585,9.418,2.402,9.744,7.937
			c0.423,7.186,0.104,14.414,0.104,21.794c-1.668,0-3.104,0-4.99,0c0-6.083,0.013-12.041-0.003-17.999
			c-0.016-5.649-1.529-7.535-5.938-7.469c-4.579,0.068-7.087,2.757-7.097,7.647C535.513,492.994,535.521,498.837,535.521,505.043z"
			/>
		<path fill-rule="evenodd" clip-rule="evenodd" d="M323.272,464.016c8.76,0,16.963,0,25.39,0c0,1.414,0,2.699,0,4.261
			c-6.548,0-13.004,0-19.74,0c0,4.795,0,9.333,0,14.258c5.499,0,11.053,0,16.835,0c0,1.661,0,2.944,0,4.601
			c-5.645,0-11.203,0-17.03,0c0,6.06,0,11.759,0,17.73c-1.814,0-3.357,0-5.456,0c0-6.714,0-13.529,0-20.344
			C323.272,477.801,323.272,471.078,323.272,464.016z"/>
		<path fill-rule="evenodd" clip-rule="evenodd" d="M610.332,498.073c0.81,0.639,1.663,1.312,2.641,2.084
			c-2.884,4.5-7.051,5.96-11.925,5.701c-4.972-0.265-9.03-2.446-11.094-7.081c-2.696-6.058-2.469-12.205,1.063-17.928
			c2.753-4.46,8.001-6.548,12.979-5.47c5.287,1.144,8.091,4.665,9.004,9.801c0.361,2.04,0.409,4.136,0.64,6.636
			c-6.906,0-13.351,0-20.063,0c-0.193,4.086,1.245,6.916,4.338,8.812C601.476,502.809,604.794,502.078,610.332,498.073z
			 M608.261,487.747c-0.275-5.443-2.661-8.354-6.75-8.478c-4.198-0.126-7.096,3.027-7.669,8.478
			C598.562,487.747,603.267,487.747,608.261,487.747z"/>
		<path fill-rule="evenodd" clip-rule="evenodd" d="M730.139,497.869c1.054,0.855,1.901,1.543,2.736,2.221
			c-5.51,8.133-18.045,7.793-22.545-0.715c-3.326-6.29-3.013-12.887,0.965-18.858c2.957-4.44,7.464-6.173,12.761-5.106
			c5.305,1.069,8.06,4.684,8.974,9.817c0.348,1.947,0.437,3.942,0.702,6.474c-6.843,0-13.381,0-20.234,0
			c0.002,4.342,1.389,7.397,4.819,9.093C722.714,502.967,726.545,501.542,730.139,497.869z M713.782,487.606
			c5.005,0,9.77,0,14.548,0c-0.49-5.407-2.676-8.078-6.6-8.32C717.563,479.029,714.71,481.957,713.782,487.606z"/>
		<path fill-rule="evenodd" clip-rule="evenodd" d="M398.147,475.134c8.09,0.014,13.676,6.42,13.593,15.59
			c-0.082,9.005-5.614,15.168-13.617,15.17c-8.132,0.003-13.602-6.294-13.526-15.57
			C384.672,481.259,390.148,475.121,398.147,475.134z M406.626,490.331c-0.011-6.588-3.521-11.104-8.609-11.079
			c-4.942,0.025-8.141,4.236-8.296,10.921c-0.162,6.997,3.091,11.528,8.332,11.608C403.219,501.861,406.638,497.293,406.626,490.331
			z"/>
		<path fill-rule="evenodd" clip-rule="evenodd" d="M681.187,475.235c1.819,0,3.172,0,4.815,0c0,9.873,0,19.649,0,30.134
			c-1.854-0.423-3.534-0.807-5.214-1.19c0.048-0.359,0.095-0.719,0.143-1.078c-0.948,0.554-1.86,1.182-2.85,1.649
			c-7.715,3.646-14.761-0.322-15.116-8.773c-0.286-6.813-0.058-13.648-0.058-20.653c1.707,0,3.027,0,4.893,0
			c0,3.827-0.001,7.643,0.001,11.459c0,2.745-0.086,5.494,0.027,8.234c0.195,4.712,2.15,6.664,6.311,6.502
			c4.606-0.179,7.021-2.5,7.04-6.86C681.207,488.314,681.187,481.967,681.187,475.235z"/>
		<path fill-rule="evenodd" clip-rule="evenodd" d="M360.779,500.709c6.875,0,13.09,0,19.54,0c0.074,1.433,0.136,2.631,0.213,4.139
			c-8.321,0-16.464,0-24.808,0c0-13.517,0-26.962,0-40.688c1.545,0,3.092,0,5.054,0C360.779,476.098,360.779,488.15,360.779,500.709
			z"/>
		<path fill-rule="evenodd" clip-rule="evenodd" d="M641.34,485.475c-2.227,0.419-4.199,0.958-5.274-2.149
			c-0.997-2.882-3.585-4.102-6.577-4.018c-2.962,0.083-5.998,1.36-6.42,4.225c-0.67,4.544-0.684,9.32-0.063,13.874
			c0.391,2.864,3.445,4.624,6.316,4.207c2.348-0.342,5.378-1.536,6.511-3.35c1.546-2.474,3.118-2.288,5.485-2.105
			c0.001,3.75-2.102,6.049-4.87,7.798c-7.039,4.444-16.735,1.184-18.751-6.865c-1.045-4.171-0.912-8.981,0.005-13.217
			c1.303-6.017,7.338-9.377,13.567-8.688C637.136,475.833,640.834,479.563,641.34,485.475z"/>
		<path fill-rule="evenodd" clip-rule="evenodd" d="M525.797,485.418c-2.812,0.815-4.26,0.19-5.793-2.42
			c-1.084-1.846-4.225-3.608-6.296-3.448c-2.265,0.174-5.23,2.125-6.342,4.151c-2.281,4.157-1.972,8.928-0.304,13.415
			c1.048,2.821,3.255,4.34,6.27,4.589c2.987,0.246,5.722-0.689,6.941-3.402c1.323-2.944,3.261-2.343,5.47-2.019
			c-1.035,5.281-4.539,8.623-9.809,9.481c-5.293,0.863-10.635-1.484-12.967-6.18c-2.939-5.916-2.926-12.086-0.065-18.02
			c2.291-4.752,7.863-7.196,13.281-6.311C521.634,476.146,524.705,479.33,525.797,485.418z"/>
		<path fill-rule="evenodd" clip-rule="evenodd" d="M586.082,501.294c-1.137,2.011-1.581,3.962-2.516,4.235
			c-3,0.877-6.248,0.623-7.871-2.501c-0.979-1.887-1.223-4.297-1.287-6.487c-0.169-5.712-0.058-11.434-0.058-17.266
			c-2.002-0.187-3.569-0.333-5.318-0.496c0-1.202,0-2.247,0-3.452c1.755-0.136,3.335-0.259,5.135-0.399
			c0.113-2.314,0.221-4.534,0.342-7.021c1.477,0,2.894,0,4.585,0c0.126,2.293,0.253,4.595,0.388,7.036
			c1.8,0.119,3.39,0.224,5.285,0.348c0.083,1.062,0.165,2.103,0.269,3.426c-1.917,0.179-3.598,0.337-5.688,0.532
			c0,6.424-0.13,12.756,0.053,19.079C579.496,501.672,582.123,501.684,586.082,501.294z"/>
		<path fill-rule="evenodd" clip-rule="evenodd" d="M647.861,479.207c-2.188-0.17-3.655-0.284-5.312-0.413c0-1.199,0-2.244,0-3.459
			c1.731-0.136,3.313-0.26,5.13-0.401c0.111-2.297,0.218-4.516,0.338-7.016c1.468,0,2.881,0,4.581,0
			c0.127,2.266,0.256,4.569,0.394,7.022c1.783,0.117,3.371,0.221,5.273,0.346c0.091,1.047,0.181,2.088,0.298,3.438
			c-1.918,0.176-3.599,0.33-5.71,0.523c0,6.406-0.301,12.759,0.217,19.043c0.125,1.523,2.946,2.825,4.527,4.229
			c0.504-0.142,1.009-0.282,1.514-0.423c-0.657,1.19-1.086,3.155-2.013,3.429c-2.996,0.884-6.247,0.64-7.88-2.477
			c-0.985-1.881-1.235-4.293-1.3-6.482C647.748,490.852,647.861,485.129,647.861,479.207z"/>
		<path fill-rule="evenodd" clip-rule="evenodd" d="M411.554,468.178c-14.54,0-28.716,0-43.087,0c0-1.495,0-2.813,0-4.41
			c14.348,0,28.61,0,43.087,0C411.554,465.225,411.554,466.539,411.554,468.178z"/>
		<path fill-rule="evenodd" clip-rule="evenodd" d="M697.689,505.083c-1.944,0-3.311,0-4.965,0c0-9.937,0-19.815,0-29.887
			c2.156,0.251,5.072-1.52,5.042,2.241c2.727-0.943,5.431-1.879,8.792-3.042c0.113,2.392,0.182,3.813,0.256,5.385
			c-1.629,0.194-3.095,0.222-4.483,0.563c-2.971,0.731-4.727,2.448-4.671,5.796C697.763,492.344,697.689,498.553,697.689,505.083z"
			/>
		<path fill-rule="evenodd" clip-rule="evenodd" d="M485.395,475.251c1.604,0,2.943,0,4.39,0c0.146,0.945,0.276,1.792,0.393,2.55
			c2.086-0.88,4.117-2.205,6.304-2.557c4.154-0.669,2.935,2.344,2.833,4.64c-1.271,0.095-2.379,0.103-3.462,0.27
			c-3.981,0.613-5.587,2.462-5.611,6.528c-0.035,5.978-0.009,11.955-0.009,18.195c-1.671,0-3.098,0-4.838,0
			C485.395,495.155,485.395,485.39,485.395,475.251z"/>
		<path fill-rule="evenodd" clip-rule="evenodd" d="M560.831,474.562c1.685,0,3.128,0,4.762,0c0,10.184,0,20.19,0,30.39
			c-1.607,0-3.05,0-4.762,0C560.831,494.934,560.831,484.929,560.831,474.562z"/>
		<path fill-rule="evenodd" clip-rule="evenodd" d="M567.791,465.999c-2.107,1.481-3.313,2.987-4.411,2.913
			c-1.079-0.073-2.807-1.72-2.849-2.735c-0.041-0.971,1.637-2.709,2.711-2.837C564.333,463.21,565.608,464.637,567.791,465.999z"/>
		<path fill-rule="evenodd" clip-rule="evenodd" fill="#FFFFFF" d="M462.499,470.546c2.57,7.152,4.739,13.185,6.998,19.471
			c-4.781,0-9.11,0-13.994,0C457.771,483.704,459.96,477.613,462.499,470.546z"/>
		<path fill-rule="evenodd" clip-rule="evenodd" fill="#FFFFFF" d="M608.261,487.747c-4.994,0-9.699,0-14.419,0
			c0.573-5.451,3.471-8.604,7.669-8.478C605.6,479.393,607.985,482.304,608.261,487.747z"/>
		<path fill-rule="evenodd" clip-rule="evenodd" fill="#FFFFFF" d="M713.782,487.606c0.928-5.649,3.781-8.577,7.948-8.32
			c3.924,0.242,6.109,2.913,6.6,8.32C723.552,487.606,718.787,487.606,713.782,487.606z"/>
		<path fill-rule="evenodd" clip-rule="evenodd" fill="#FFFFFF" d="M406.626,490.331c0.012,6.963-3.407,11.53-8.573,11.451
			c-5.241-0.08-8.494-4.611-8.332-11.608c0.155-6.686,3.354-10.896,8.296-10.921C403.106,479.226,406.616,483.743,406.626,490.331z"
			/>
	</g>
</g>
<g id="Layer_2">
	<g>
		<path fill="#020202" d="M89.297,109.137H43.962v43.969H30.513V53.698h65.748v10.583H43.962v34.274h45.335V109.137z"/>
		<path fill="#020202" d="M125.414,142.523h47.041v10.583h-60.491V53.698h13.45V142.523z"/>
		<path fill="#020202" d="M181.809,115.487c0-10.924,2.958-19.924,8.876-27.002c5.916-7.077,13.95-10.617,24.101-10.617
			c10.241,0,18.331,3.528,24.271,10.583c5.939,7.056,8.91,16.068,8.91,27.037v1.502c0,11.016-2.96,20.028-8.876,27.037
			c-5.918,7.01-13.974,10.514-24.169,10.514c-10.196,0-18.264-3.516-24.204-10.548c-5.939-7.032-8.909-16.033-8.909-27.002V115.487z
			 M195.259,116.954c0,7.819,1.649,14.276,4.949,19.366c3.3,5.092,8.204,7.637,14.714,7.637c6.417,0,11.287-2.545,14.61-7.637
			c3.322-5.09,4.984-11.547,4.984-19.366v-1.5c0-7.728-1.673-14.161-5.019-19.298c-3.346-5.136-8.25-7.705-14.713-7.705
			c-6.418,0-11.277,2.569-14.577,7.705c-3.3,5.138-4.949,11.57-4.949,19.298V116.954z"/>
		<path fill="#020202" d="M390.319,127.503h-41.647l-9.422,25.603h-13.724l38.438-99.408h11.538l37.824,99.408h-13.723
			L390.319,127.503z M352.836,116.238h33.455l-16.386-45.266h-0.41L352.836,116.238z"/>
		<path fill="#020202" d="M459.412,91.113l-6.896-0.41c-3.55,0-6.544,0.843-8.978,2.526c-2.436,1.685-4.313,4.052-5.633,7.101
			v52.776h-13.45V79.233h12.017l1.297,10.788c2.093-3.824,4.677-6.804,7.749-8.944c3.072-2.139,6.611-3.208,10.616-3.208
			c1.001,0,1.957,0.08,2.868,0.239c0.91,0.16,1.661,0.331,2.253,0.512L459.412,91.113z"/>
		<path fill="#020202" d="M501.129,143.957c4.46,0,8.386-1.376,11.777-4.13c3.39-2.753,5.086-6.133,5.086-10.139h12.085l0.137,0.41
			c0.227,6.373-2.606,12.04-8.501,17c-5.895,4.962-12.756,7.442-20.584,7.442c-10.743,0-18.958-3.504-24.647-10.514
			c-5.69-7.009-8.534-15.816-8.534-26.422v-2.867c0-10.515,2.855-19.288,8.568-26.32c5.712-7.032,13.916-10.548,24.613-10.548
			c8.647,0,15.714,2.549,21.199,7.646c5.484,5.098,8.135,11.357,7.953,18.775l-0.136,0.41h-12.153c0-4.506-1.594-8.34-4.779-11.504
			c-3.187-3.163-7.215-4.745-12.084-4.745c-7.057,0-12.097,2.535-15.123,7.603c-3.027,5.069-4.54,11.285-4.54,18.65v2.863
			c0,7.546,1.502,13.832,4.506,18.855S494.028,143.957,501.129,143.957z"/>
		<path fill="#020202" d="M558.752,89.133c2.549-3.55,5.678-6.315,9.388-8.295c3.709-1.98,7.817-2.97,12.324-2.97
			c7.874,0,14.007,2.367,18.399,7.101c4.393,4.734,6.588,12.016,6.588,21.848v46.29h-13.449v-46.427
			c0-6.099-1.309-10.605-3.926-13.518c-2.618-2.913-6.521-4.37-11.709-4.37c-3.733,0-7.112,0.877-10.139,2.628
			c-3.028,1.753-5.52,4.131-7.477,7.135v54.551h-13.45V46.598h13.45V89.133z"/>
		<path fill="#020202" d="M639.315,60.321h-13.45V46.598h13.45V60.321z M639.315,153.106h-13.45V79.233h13.45V153.106z"/>
		<path fill="#020202" d="M677.754,61.413v17.82h13.996v9.968h-13.996v44.856c0,3.459,0.717,5.895,2.15,7.305
			c1.434,1.411,3.334,2.117,5.701,2.117c0.773,0,1.627-0.091,2.561-0.273c0.932-0.181,1.763-0.41,2.492-0.683l1.774,9.217
			c-1.001,0.819-2.47,1.491-4.403,2.014c-1.936,0.523-3.881,0.785-5.838,0.785c-5.462,0-9.809-1.649-13.04-4.95
			c-3.232-3.3-4.848-8.477-4.848-15.532V89.201h-11.743v-9.968h11.743v-17.82H677.754z"/>
		<path fill="#020202" d="M738.997,154.54c-10.287,0-18.469-3.424-24.545-10.275c-6.076-6.85-9.115-15.737-9.115-26.662v-3.004
			c0-10.514,3.129-19.264,9.388-26.251c6.258-6.986,13.666-10.48,22.224-10.48c9.968,0,17.501,3.004,22.599,9.012
			c5.098,6.008,7.647,14.02,7.647,24.032v8.398h-47.929l-0.205,0.34c0.137,7.082,1.934,12.903,5.394,17.464
			c3.459,4.562,8.306,6.842,14.543,6.842c4.551,0,8.545-0.648,11.981-1.946c3.437-1.297,6.406-3.083,8.91-5.359l5.257,8.749
			c-2.64,2.612-6.122,4.787-10.445,6.528C750.375,153.669,745.142,154.54,738.997,154.54z M736.948,88.45
			c-4.506,0-8.353,1.895-11.538,5.682c-3.187,3.788-5.145,8.54-5.872,14.255l0.137,0.34h34.069v-1.769
			c0-5.263-1.411-9.663-4.233-13.202C746.688,90.22,742.501,88.45,736.948,88.45z"/>
		<path fill="#020202" d="M812.323,143.957c4.461,0,8.387-1.376,11.777-4.13c3.391-2.753,5.087-6.133,5.087-10.139h12.084
			l0.137,0.41c0.228,6.373-2.605,12.04-8.5,17c-5.895,4.962-12.757,7.442-20.585,7.442c-10.742,0-18.958-3.504-24.646-10.514
			c-5.69-7.009-8.534-15.816-8.534-26.422v-2.867c0-10.515,2.855-19.288,8.568-26.32c5.711-7.032,13.916-10.548,24.612-10.548
			c8.647,0,15.714,2.549,21.199,7.646c5.484,5.098,8.136,11.357,7.954,18.775l-0.137,0.41h-12.152c0-4.506-1.594-8.34-4.779-11.504
			c-3.187-3.163-7.215-4.745-12.085-4.745c-7.056,0-12.096,2.535-15.122,7.603c-3.028,5.069-4.541,11.285-4.541,18.65v2.863
			c0,7.546,1.502,13.832,4.507,18.855C800.171,141.446,805.223,143.957,812.323,143.957z"/>
		<path fill="#020202" d="M874.248,61.413v17.82h13.996v9.968h-13.996v44.856c0,3.459,0.717,5.895,2.15,7.305
			c1.434,1.411,3.334,2.117,5.701,2.117c0.773,0,1.627-0.091,2.561-0.273c0.932-0.181,1.763-0.41,2.492-0.683l1.774,9.217
			c-1.001,0.819-2.47,1.491-4.403,2.014c-1.936,0.523-3.881,0.785-5.838,0.785c-5.462,0-9.809-1.649-13.04-4.95
			c-3.232-3.3-4.848-8.477-4.848-15.532V89.201h-11.743v-9.968h11.743v-17.82H874.248z"/>
		<path fill="#020202" d="M951.74,142.182c-2.321,3.96-5.303,7.01-8.944,9.149c-3.642,2.139-7.852,3.208-12.631,3.208
			c-8.056,0-14.337-2.571-18.844-7.715c-4.506-5.143-6.759-13.153-6.759-24.033V79.233h13.45v43.696
			c0,7.875,1.16,13.291,3.481,16.249c2.321,2.959,5.94,4.438,10.856,4.438c4.778,0,8.727-0.966,11.845-2.901
			c3.117-1.934,5.473-4.677,7.066-8.228V79.233h13.45v73.873h-12.084L951.74,142.182z"/>
		<path fill="#020202" d="M1019.263,91.113l-6.896-0.41c-3.551,0-6.544,0.843-8.979,2.526c-2.436,1.685-4.313,4.052-5.633,7.101
			v52.776h-13.449V79.233h12.016l1.298,10.788c2.093-3.824,4.677-6.804,7.749-8.944c3.072-2.139,6.61-3.208,10.616-3.208
			c1.001,0,1.957,0.08,2.868,0.239c0.909,0.16,1.66,0.331,2.253,0.512L1019.263,91.113z"/>
		<path fill="#020202" d="M1061.594,154.54c-10.287,0-18.469-3.424-24.545-10.275c-6.076-6.85-9.115-15.737-9.115-26.662v-3.004
			c0-10.514,3.129-19.264,9.388-26.251c6.258-6.986,13.666-10.48,22.224-10.48c9.968,0,17.501,3.004,22.599,9.012
			c5.098,6.008,7.647,14.02,7.647,24.032v8.398h-47.929l-0.205,0.34c0.137,7.082,1.934,12.903,5.394,17.464
			c3.459,4.562,8.306,6.842,14.543,6.842c4.551,0,8.545-0.648,11.981-1.946c3.437-1.297,6.406-3.083,8.91-5.359l5.257,8.749
			c-2.64,2.612-6.122,4.787-10.445,6.528C1072.972,153.669,1067.738,154.54,1061.594,154.54z M1059.545,88.45
			c-4.506,0-8.353,1.895-11.538,5.682c-3.187,3.788-5.145,8.54-5.872,14.255l0.137,0.34h34.069v-1.769
			c0-5.263-1.411-9.663-4.233-13.202C1069.285,90.22,1065.098,88.45,1059.545,88.45z"/>
	</g>
	<path fill-rule="evenodd" clip-rule="evenodd" d="M248.351,63.776c-36.169,0-71.437,0-107.187,0c0-3.722,0-6.999,0-10.971
		c35.694,0,71.173,0,107.187,0C248.351,56.43,248.351,59.7,248.351,63.776z"/>
</g>
</svg>
